<?xml version="1.0" encoding="UTF-8" standalone="no"?>
<svg
   xmlns:dc="http://purl.org/dc/elements/1.1/"
   xmlns:cc="http://creativecommons.org/ns#"
   xmlns:rdf="http://www.w3.org/1999/02/22-rdf-syntax-ns#"
   xmlns:svg="http://www.w3.org/2000/svg"
   xmlns="http://www.w3.org/2000/svg"
   id="svg8"
   version="1.1"
   viewBox="0 0 1216.5808 398.09756"
   height="398.09756mm"
   width="1216.5808mm">
  <defs
     id="defs2" />
  <metadata
     id="metadata5">
    <rdf:RDF>
      <cc:Work
         rdf:about="">
        <dc:format>image/svg+xml</dc:format>
        <dc:type
           rdf:resource="http://purl.org/dc/dcmitype/StillImage" />
        <dc:title></dc:title>
      </cc:Work>
    </rdf:RDF>
  </metadata>
  <g
     transform="translate(78.631799,48.958745)"
     style="display:inline"
     id="layer1">
    <path
       style="fill:#ba262a;fill-opacity:1;stroke:none;stroke-width:0.26458332px;stroke-linecap:butt;stroke-linejoin:miter;stroke-opacity:1"
       d="M 108.16713,349.1384 169.57484,242.54918 H 46.621759 Z"
       id="path3726-3-6-5" />
    <path
       style="fill:#c1272d;fill-opacity:1;stroke:none;stroke-width:0.26458332px;stroke-linecap:butt;stroke-linejoin:miter;stroke-opacity:1"
       d="M 170.58691,240.91513 231.99462,134.32591 H 109.04154 Z"
       id="path3726-3-6-5-3" />
    <path
       style="fill:#e95656;fill-opacity:1;stroke:none;stroke-width:0.26458332px;stroke-linecap:butt;stroke-linejoin:miter;stroke-opacity:1"
       d="M 45.517162,240.91513 106.92486,134.32591 H -16.028208 Z"
       id="path3726-3-6-5-3-5" />
    <path
       style="fill:#ee9c97;fill-opacity:0.98952876;stroke:none;stroke-width:0.26458332px;stroke-linecap:butt;stroke-linejoin:miter;stroke-opacity:1"
       d="M -17.086542,132.7384 44.321158,26.149193 H -78.631799 Z"
       id="path3726-3-6-5-3-5-6" />
    <path
       style="fill:#771a1c;fill-opacity:1;stroke:none;stroke-width:0.26458332px;stroke-linecap:butt;stroke-linejoin:miter;stroke-opacity:1"
       d="M 233.58213,132.7384 294.98983,26.149204 H 172.03687 Z"
       id="path3726-3-6-5-3-5-6-2" />
    <path
       style="fill:#d84042;fill-opacity:1;stroke:none;stroke-width:0.26458332px;stroke-linecap:butt;stroke-linejoin:miter;stroke-opacity:1"
       d="M 169.58831,241.33032 107.9832,134.85508 46.506644,241.33557 Z"
       id="path3726-3-6-5-9" />
    <path
       style="fill:#a32428;fill-opacity:1;stroke:none;stroke-width:0.26458332px;stroke-linecap:butt;stroke-linejoin:miter;stroke-opacity:1"
       d="M 232.58364,133.15362 170.97853,26.678371 109.50197,133.15887 Z"
       id="path3726-3-6-5-9-1" />
    <path
       style="fill:#e1504f;fill-opacity:1;stroke:none;stroke-width:0.26458332px;stroke-linecap:butt;stroke-linejoin:miter;stroke-opacity:1"
       d="M 106.98461,133.15361 45.379492,26.67836 l -61.47656,106.4805 z"
       id="path3726-3-6-5-9-2" />
  </g>
  <g
     transform="translate(9.9999998e-7,74.578782)"
     style="display:inline"
     id="layer6">
    <path
       id="rect4739"
       d="m 394.1369,0.38919383 h 61.72131 V 323.51869 H 394.1369 Z"
       style="fill:#dcdcdc;fill-opacity:1;stroke:none;stroke-width:0.27868161;stroke-opacity:1" />
    <path
       id="path4745"
       d="m 395.60185,-74.312324 58.26476,-0.133636 -29.26601,49.979402 z"
       style="fill:#c2272d;fill-opacity:1;stroke:none;stroke-width:0.26458332px;stroke-linecap:butt;stroke-linejoin:miter;stroke-opacity:1" />
    <path
       id="rect4739-7"
       d="m 492.38322,0.2495251 h 61.72131 L 608.99097,0.1697003 C 651.67316,0.1492061 717.29192,36.313521 717.28492,111.76425 c -0.007,75.45073 -66.46925,113.83287 -108.42778,113.98943 l -57.33382,-0.12253 -0.5588,-61.584 58.00334,0.0424 c 22.1561,-0.73544 44.25504,-23.86897 44.40903,-51.44814 0.15399,-27.579162 -21.60563,-49.611219 -44.47368,-49.193581 L 554.10453,63.092781 V 323.37903 h -61.72131 z"
       style="display:inline;fill:#dcdcdc;fill-opacity:1;stroke:none;stroke-width:0.27868161;stroke-opacity:1" />
    <path
       id="rect4739-0"
       d="m 747.85929,0.38928569 h 61.72131 l 131.76388,0.005314 V 63.737478 H 809.5806 v 67.084652 h 98.35519 v 62.80834 H 809.5806 v 129.88831 h -61.72131 z"
       style="display:inline;fill:#dcdcdc;fill-opacity:0.99476438;stroke:none;stroke-width:0.27868161;stroke-opacity:1" />
    <path
       id="rect4739-9"
       d="m 959.21821,0.38928469 h 72.97669 L 1088.3215,103.82259 1144.7154,0.38928469 h 71.8654 L 1119.2947,178.58912 v 144.92966 h -61.7213 V 178.58912 Z"
       style="display:inline;fill:#dcdcdc;fill-opacity:1;stroke:none;stroke-width:0.27868161;stroke-opacity:1" />
  </g>
</svg>
