<?xml version="1.0" encoding="utf-8"?>
<!-- Generator: Adobe Illustrator 21.1.0, SVG Export Plug-In . SVG Version: 6.00 Build 0)  -->
<svg version="1.0" id="Ebene_1" xmlns="http://www.w3.org/2000/svg" xmlns:xlink="http://www.w3.org/1999/xlink" x="0px" y="0px"
	 viewBox="0 0 1135.9 932.5" style="enable-background:new 0 0 1135.9 932.5;" xml:space="preserve">
<style type="text/css">
	.st0{fill:#FFFFFF;}
</style>
<g>
	<path class="st0" d="M752.3,840.6c-4.5,7.7-8.9,15.5-13.4,23.2c0.2-0.3,0.4-0.6,0.5-0.9c125.9-218,251.7-436,377.6-654
		c25.2-43.6,25.2-95.7,0-139.3C1091.9,26,1046.8,0,996.4,0c-23.7,0-47.5,0-71.2,0H621.5c0,45.5,0,91.1,0,136.6c125,0,250,0,374.9,0
		c1.1,0,1.3,0.1,1.4,0.2c0.1,0.1,0.3,0.2,0.9,1.2c0.5,0.9,0.6,1.2,0.6,1.3c0,0.1,0,0.4-0.6,1.3c-125.9,218-251.7,436-377.6,654
		c0,0,0,0,0,0c0,0,0,0,0,0c0,0,0,0,0,0c0,0,0,0,0,0c-0.5,0.9-1.2,1.3-2.2,1.3c-1.1,0-1.7-0.4-2.2-1.3
		C463.7,529.8,310.7,264.9,157.7,0C105.2,0,52.6,0,0,0c166.1,287.6,332.3,575.3,498.4,862.9c53.8,93.2,188.5,92.7,241.6-0.9"/>
	<polygon class="st0" points="549.7,482.3 293.4,40.8 269.8,0 427.7,0 687.8,448 707.7,482.3 	"/>
</g>
</svg>
