<svg xmlns="http://www.w3.org/2000/svg" xmlns:xlink="http://www.w3.org/1999/xlink" width="197" height="176" viewBox="0 0 197 176"><defs><style>.a{fill:#3f3d56;}.b,.k{fill:#20baa9;}.b{opacity:0.04;}.c{opacity:0.7;}.d{fill:url(#a);}.e{fill:#3ad29f;}.f{fill:#4d8af0;}.f,.g,.h,.i{opacity:0.5;}.g{fill:#f55f44;}.h,.j{fill:#47e6b1;}.l{fill:#ffb9b9;}.m{fill:#575a89;}.n{opacity:0.1;}.o{fill:#2f2e41;}</style><linearGradient id="a" y1="0.5" x2="1" y2="0.5" gradientUnits="objectBoundingBox"><stop offset="0" stop-color="gray" stop-opacity="0.251"/><stop offset="0.535" stop-color="gray" stop-opacity="0.122"/><stop offset="1" stop-color="gray" stop-opacity="0.102"/></linearGradient></defs><g transform="translate(-0.004)"><path class="a" d="M394.015,76.854,332,114.921s0,78.512,62.018,121.338c62.018-42.825,62.018-121.338,62.018-121.338Z" transform="translate(-295.124 -74.404)"/><path class="b" d="M599.751,76.854l-1.051.651V235.516c.349.248.7.5,1.051.743,61.5-42.825,61.5-121.338,61.5-121.338Z" transform="translate(-500.25 -74.404)"/><g class="c" transform="translate(79.166 69.477)"><path class="d" d="M349.752,312.855l11.593,10.627,14.372-20.733,5.8,4.831-20.168,25.563-16.424-18.356Z" transform="translate(-344.921 -302.75)"/></g><path class="e" d="M364.84,312.722l9.4,8.621,13.323-19.592,4.7,3.919-18.025,23.511-13.323-14.89Z" transform="translate(-278.1 -232.512)"/><path class="f" d="M326.106,108.812a.838.838,0,0,1-.467-1.013.4.4,0,0,0,.018-.093h0a.42.42,0,0,0-.755-.278h0a.4.4,0,0,0-.046.082.838.838,0,0,1-1.013.467.4.4,0,0,0-.093-.018h0a.42.42,0,0,0-.278.755h0a.4.4,0,0,0,.083.046.838.838,0,0,1,.467,1.013.4.4,0,0,0-.018.093h0a.42.42,0,0,0,.755.278h0a.4.4,0,0,0,.046-.082.838.838,0,0,1,1.013-.467.4.4,0,0,0,.093.018h0a.42.42,0,0,0,.278-.755h0a.4.4,0,0,0-.082-.047Z" transform="translate(-288.413 -97.877)"/><path class="f" d="M180.106,433.813a.838.838,0,0,1-.467-1.013.4.4,0,0,0,.018-.093h0a.42.42,0,0,0-.755-.278h0a.4.4,0,0,0-.046.082.838.838,0,0,1-1.013.467.4.4,0,0,0-.093-.018h0a.42.42,0,0,0-.278.755h0a.4.4,0,0,0,.082.047.838.838,0,0,1,.467,1.013.4.4,0,0,0-.018.093h0a.42.42,0,0,0,.755.278h0a.4.4,0,0,0,.046-.083.838.838,0,0,1,1.013-.467.4.4,0,0,0,.093.018h0a.42.42,0,0,0,.278-.755h0A.4.4,0,0,0,180.106,433.813Z" transform="translate(-175.704 -348.32)"/><circle class="g" cx="1.368" cy="1.368" r="1.368" transform="translate(170.326 56.854)"/><circle class="g" cx="1.368" cy="1.368" r="1.368" transform="translate(26.317 155.299)"/><circle class="g" cx="1.368" cy="1.368" r="1.368" transform="translate(193.584 109.811)"/><path class="f" d="M865.106,137.813a.838.838,0,0,1-.467-1.013.4.4,0,0,0,.018-.093h0a.42.42,0,0,0-.755-.278h0a.4.4,0,0,0-.047.082.838.838,0,0,1-1.013.467.4.4,0,0,0-.093-.018h0a.42.42,0,0,0-.278.755h0a.4.4,0,0,0,.082.046.838.838,0,0,1,.467,1.013.4.4,0,0,0-.018.093h0a.42.42,0,0,0,.755.278h0a.4.4,0,0,0,.046-.083.838.838,0,0,1,1.013-.467.4.4,0,0,0,.093.018h0a.42.42,0,0,0,.278-.755h0A.4.4,0,0,0,865.106,137.813Z" transform="translate(-703.47 -120.265)"/><path class="f" d="M965.106,765.813a.838.838,0,0,1-.467-1.013.4.4,0,0,0,.018-.093h0a.42.42,0,0,0-.755-.278h0a.405.405,0,0,0-.047.083.838.838,0,0,1-1.013.467.4.4,0,0,0-.093-.018h0a.42.42,0,0,0-.278.755h0a.4.4,0,0,0,.083.047.838.838,0,0,1,.467,1.013.4.4,0,0,0-.018.093h0a.42.42,0,0,0,.755.278h0a.4.4,0,0,0,.047-.083.838.838,0,0,1,1.013-.467.4.4,0,0,0,.093.018h0a.42.42,0,0,0,.279-.755h0A.407.407,0,0,0,965.106,765.813Z" transform="translate(-780.668 -604.138)"/><path class="f" d="M173.106,243.813a.838.838,0,0,1-.467-1.013.4.4,0,0,0,.018-.093h0a.42.42,0,0,0-.755-.278h0a.4.4,0,0,0-.046.083.838.838,0,0,1-1.013.467.4.4,0,0,0-.093-.018h0a.42.42,0,0,0-.278.755h0a.4.4,0,0,0,.082.046.838.838,0,0,1,.467,1.013.4.4,0,0,0-.018.093h0a.42.42,0,0,0,.755.278h0a.4.4,0,0,0,.046-.082.838.838,0,0,1,1.013-.467.4.4,0,0,0,.093.018h0a.42.42,0,0,0,.278-.755h0A.4.4,0,0,0,173.106,243.813Z" transform="translate(-170.3 -201.878)"/><circle class="h" cx="1.368" cy="1.368" r="1.368" transform="translate(16.74 63.732)"/><circle class="h" cx="1.368" cy="1.368" r="1.368" transform="translate(194.268 74.736)"/><g class="i" transform="translate(132.146)"><rect class="j" width="0.684" height="3.876" transform="translate(1.596)"/><rect class="j" width="0.684" height="3.876" transform="translate(3.876 1.596) rotate(90)"/></g><g class="i" transform="translate(134.668 152.791)"><rect class="j" width="0.684" height="3.876" transform="translate(1.596)"/><rect class="j" width="0.684" height="3.876" transform="translate(3.876 1.596) rotate(90)"/></g><g class="i" transform="translate(4.427 161)"><rect class="j" width="0.684" height="3.876" transform="translate(1.596)"/><rect class="j" width="0.684" height="3.876" transform="translate(3.876 1.596) rotate(90)"/></g><g class="i" transform="translate(161.205 90.786)"><rect class="j" width="0.684" height="3.876" transform="translate(1.596)"/><rect class="j" width="0.684" height="3.876" transform="translate(3.876 1.596) rotate(90)"/></g><path class="h" d="M793.533,117.214,795,118.561l2.081-3.061.735.612L795,119.785l-2.081-2.326Z" transform="translate(-611.075 -89.164)"/><rect class="k" width="5.072" height="6.521" transform="translate(135.143 55.057) rotate(-2.221)"/><path class="l" d="M658.325,399.921s-7.018-3.353-6.906-.457,7.074,4.8,7.074,4.8Z" transform="translate(-541.105 -322.126)"/><path class="k" d="M676.978,499.8a101.264,101.264,0,0,0-4.534,13.952c-1.223,5.848-3.086,13.9-.69,19.6s9.21,22.483,9.28,24.293-.584,3.648.864,3.592,9.328-2.537,9.647-3.637-2.688-3.884-2.688-3.884l-7.428-23.277,7.75-15.165,5.59,22.623,1.095,28.235s5.374-1.659,6.154-.239c0,0,2.408-3.356,2.714-4.818s-1.137-29.321-1.137-29.321,4.933-31.732.951-31.578S684.967,490.787,676.978,499.8Z" transform="translate(-555.773 -396.986)"/><path class="m" d="M700.894,767.574s-3.673,8.118-4.021,8.494-2.742,4.094-.932,4.024,6.084-2.049,9.229-5.071,7.293-8.259,6.917-8.607a21.359,21.359,0,0,0-2.952-1.336Z" transform="translate(-574.868 -604.77)"/><path class="m" d="M779.983,793.561a21.1,21.1,0,0,1-.889,5.11c-.668,1.476-.584,3.648,1.226,3.578s6.488-.977,6.488-.977.278-2.186-.1-2.534-1.978-4.274-1.3-5.388S779.983,793.561,779.983,793.561Z" transform="translate(-639.208 -626.251)"/><path class="l" d="M778.252,278.6s3.859,6.013,5.363,7.405-2.727,4.456-2.727,4.456l-7.574,1.019s.1-6.892-.295-7.6S778.252,278.6,778.252,278.6Z" transform="translate(-634.795 -229.87)"/><path class="k" d="M739.911,307.5s1.56,2.84,3.008,2.784,8.938-3.247,9.257-4.347,2.481,7.88,2.481,7.88l-18.326,32.251-4.47-3.089,2.166-18.936,1.779-10.22Z" transform="translate(-603.04 -250.802)"/><path class="m" d="M721.688,328.988a10.141,10.141,0,0,0-1.124,4.757c0,.072.006.145.012.217.173,3.35,1.408,7.225,1.85,10.043.321,2.021.23,3.5-.953,3.844-2.868.836.418,1.434-10.677,5.127s-13.032.505-13.06-.219,1.571-6.224,1.2-6.572-5.261,4.554-6.737,3.887-.168-4.344-.168-4.344,3.325-7.742,3.255-9.552,5.037-10.346,5.037-10.346l3.474-22.612s1.336-2.952,3.132-3.384a4.449,4.449,0,0,1,3.286.6l-3.005,6.642L704.032,318.8l.53,4.33s3.687-7.756,6.109-10.75,7.585-10.083,7.585-10.083,1.205-4.067.3-5.283,3.8-1.4,5.8,3.6c1.063,2.649,2.79,6.6,3.872,10.276.964,3.258,1.419,6.3.464,8.045C727.23,321.587,723.559,325.083,721.688,328.988Z" transform="translate(-571.864 -243.385)"/><path class="n" d="M825.989,365.291c-1.459,2.66-5.13,6.155-7,10.06-.489-1.761-1.085-3.583-1.085-3.583s-2.287-12.238,4.478-15.4a4.528,4.528,0,0,1,3.145.879C826.489,360.5,826.944,363.55,825.989,365.291Z" transform="translate(-669.124 -289.772)"/><path class="m" d="M687.689,392.191l-5.736,1.673-7.964.309-.819,6.92,13.088.943S689.527,392.845,687.689,392.191Z" transform="translate(-557.842 -317.419)"/><path class="l" d="M756.932,494.231s-7.673,1.273-5.922,3.582,8.549-.119,8.549-.119Z" transform="translate(-617.656 -396.078)"/><path class="n" d="M780.831,461.5c.173,3.35,1.408,7.225,1.851,10.043-2.444,2.314-4.769,4.354-5.645,4.388-1.81.07-4.72-.18-5.792.225s-1.7-6.46-1.7-6.46a5.936,5.936,0,0,1,3.494-3.4A39.747,39.747,0,0,0,780.831,461.5Z" transform="translate(-632.123 -370.823)"/><path class="m" d="M784.967,346.831s6.126-.963,5.795,9.2.646,16.652-1.818,18.56-10.467,10.557-12.277,10.627-4.72-.18-5.792.225-1.7-6.46-1.7-6.46a5.936,5.936,0,0,1,3.494-3.4c2.854-1.2,9.577-5.447,9.521-6.895a46.185,46.185,0,0,0-1.7-6.46S778.2,349.993,784.967,346.831Z" transform="translate(-631.8 -282.365)"/><circle class="l" cx="7.97" cy="7.97" r="7.97" transform="translate(130.06 41.659)"/><path class="o" d="M734.449,227.153a1.539,1.539,0,0,1-.67.336.478.478,0,0,1-.554-.384,1.986,1.986,0,0,1-.76.975c-.372.194-.948.031-1-.385a1.757,1.757,0,0,1-.4.854.606.606,0,0,1-.851.028,21.888,21.888,0,0,1,.114,2.712,3.452,3.452,0,0,0,.976,2.458c1,.867,2.495.653,3.806.489a1.155,1.155,0,0,1,.6.033c.491.209.469.892.475,1.426a3.961,3.961,0,0,0,3.469,3.762,1.986,1.986,0,0,0,1.476-.36c.372-.315.562-.83.989-1.067.694-.385,1.535.177,2.042.787s1.007,1.361,1.793,1.473c1.039.148,1.831-.911,2.219-1.886a11,11,0,0,0-.219-8.544C745.772,225.13,738.36,224.382,734.449,227.153Z" transform="translate(-601.784 -188.978)"/></g></svg>