<?xml version="1.0" encoding="utf-8"?>
<!-- Generator: Adobe Illustrator 21.1.0, SVG Export Plug-In . SVG Version: 6.00 Build 0)  -->
<svg version="1.0" xmlns="http://www.w3.org/2000/svg" xmlns:xlink="http://www.w3.org/1999/xlink" x="0px" y="0px"
	 viewBox="0 0 86.3 80.2" style="enable-background:new 0 0 86.3 80.2;" xml:space="preserve">
<style type="text/css">
	.st0{display:none;}
	.st1{display:inline;}
	.st2{fill:#FFFFFF;}
	.st3{display:inline;fill:#FFFFFF;}
</style>
<g id="Ebene_1" class="st0">
	<g class="st1">
		<path class="st2" d="M52.1,61.7c-0.3,0.5-0.5,0.9-0.8,1.4c0,0,0,0,0-0.1c7.4-12.8,14.8-25.6,22.2-38.5c1.5-2.6,1.5-5.6,0-8.2
			c-1.5-2.6-4.1-4.1-7.1-4.1c-6,0-12,0-18,0c-2.2,0-4,1.8-4,4s1.8,4,4,4c6,0,12,0,18,0c0.1,0,0.1,0,0.1,0c0,0,0,0,0.1,0.1
			c0,0.1,0,0.1,0,0.1c0,0,0,0,0,0.1C59.2,33.4,51.8,46.2,44.4,59l0,0l0,0l0,0l0,0c0,0.1-0.1,0.1-0.1,0.1c-0.1,0-0.1,0-0.1-0.1
			c-8.6-14.9-17.2-29.8-25.8-44.7c-1.1-1.9-3.6-2.6-5.5-1.5c-1.9,1.1-2.6,3.6-1.5,5.5C19.9,33.2,28.5,48.1,37.1,63
			c3.2,5.5,11.1,5.4,14.2-0.1"/>
		<path class="st2" d="M47.5,34.6c1.1,1.9,0.5,4.4-1.5,5.5c-1.9,1.1-4.4,0.5-5.5-1.5c-3.9-6.8-7.9-13.5-11.8-20.3
			c-1.1-1.9-0.5-4.4,1.5-5.5c1.9-1.1,4.4-0.5,5.5,1.5C39.7,21.1,43.6,27.8,47.5,34.6z"/>
	</g>
</g>
<g id="Ebene_2" class="st0">
	<path class="st3" d="M74.2,15.5c-1.5-2.7-4.3-4.3-7.4-4.3c-1.8,0-3.7,0-5.5,0c-10.5,0-20.9,0-31.4,0c3.6,6.3,7.3,12.6,10.9,18.8
		l0,0l0,0C44.4,36.4,48,42.7,51.7,49c0.2,0.3,0.2,0.7,0.2,1.1c0,0.4-0.1,0.8-0.2,1.1c-1.9,3.3-3.8,6.6-5.7,9.8
		c-0.7,1.2-1.8,1.3-2.3,1.3s-1.6-0.1-2.3-1.3C34,48,26.5,35,19,22c-1.8-3.1-3.6-6.2-5.4-9.3c-0.8-1.4-2.6-1.9-4-1.1
		c-1.4,0.8-1.9,2.6-1.1,4c1.8,3.1,3.6,6.2,5.4,9.3c7.5,13,15,26,22.5,39c1.5,2.7,4.3,4.3,7.4,4.3c3.1,0,5.8-1.6,7.4-4.3
		c7.7-13.3,15.4-26.6,23.1-40C75.7,21.3,75.7,18.1,74.2,15.5z M69.1,20.9L69.1,21C69.1,21,69.1,21,69.1,20.9
		c-4.5,7.8-9,15.5-13.4,23.3c-5.2-9-10.4-18.1-15.6-27.1c7.1,0,14.1,0,21.2,0c1.8,0,3.7,0,5.5,0c1.4,0,2,0.9,2.3,1.3
		C69.3,18.8,69.8,19.8,69.1,20.9C69.1,21,69.1,20.9,69.1,20.9z"/>
</g>
<g id="Ebene_3" class="st0">
	<g class="st1">
		<path class="st2" d="M51.2,61.1c-0.3,0.5-0.5,0.9-0.8,1.4c0,0,0,0,0-0.1C57.8,49.6,65.2,36.8,72.6,24c1.5-2.6,1.5-5.6,0-8.2
			c-1.5-2.6-4.1-4.1-7.1-4.1c-1.4,0-2.8,0-4.2,0H43.5c0,2.7,0,5.4,0,8c7.3,0,14.7,0,22,0c0.1,0,0.1,0,0.1,0c0,0,0,0,0.1,0.1
			c0,0.1,0,0.1,0,0.1c0,0,0,0,0,0.1c-7.4,12.8-14.8,25.6-22.2,38.5c0,0,0,0,0,0l0,0l0,0c0,0,0,0,0,0c0,0.1-0.1,0.1-0.1,0.1
			c-0.1,0-0.1,0-0.1-0.1c-9-15.6-18-31.1-27-46.7c-3.1,0-6.2,0-9.3,0c9.8,16.9,19.5,33.8,29.3,50.7c3.2,5.5,11.1,5.4,14.2-0.1"/>
		<polygon class="st2" points="39.3,40 24.2,14.1 22.8,11.7 32.1,11.7 47.4,38 48.5,40 		"/>
	</g>
</g>
<g id="Ebene_4" class="st0">
	<path class="st3" d="M50.4,62.4c-3.1,5.5-11,5.5-14.2,0.1c-8.6-14.9-17.2-29.8-25.8-44.7c-1.1-1.9-0.5-4.4,1.5-5.5
		c0.6-0.4,1.3-0.5,2-0.5l2.3,0l1.1,2c8.6,14.9,17.2,29.8,25.8,44.7c0,0.1,0.1,0.1,0.1,0.1c0.1,0,0.1,0,0.1-0.1l0,0l0,0l0,0l0,0
		c7.4-12.8,14.8-25.6,22.2-38.5c0-0.1,0-0.1,0-0.1c0,0,0,0,0-0.1c0-0.1,0-0.1-0.1-0.1c0,0,0,0-0.1,0c-5.8,0-11.5,0-17.3,0l-4.7-8h4
		c6,0,12,0,18,0c3,0,5.6,1.5,7.1,4.1c1.5,2.6,1.5,5.6,0,8.2C65.1,36.8,57.7,49.6,50.4,62.4c0,0.1-0.1,0.1-0.1,0.1
		c0.3-0.5,0.5-0.9,0.8-1.4"/>
	<polygon class="st3" points="41.2,40 26.1,14.1 24.7,11.7 34,11.7 49.3,38 50.5,40 	"/>
</g>
<g id="Ebene_5" class="st0">
	<g class="st1">
		<path class="st2" d="M52.4,61.1c-0.3,0.5-0.5,0.9-0.8,1.4c0,0,0,0,0-0.1C59,49.6,66.4,36.8,73.8,24c1.5-2.6,1.5-5.6,0-8.2
			c-1.5-2.6-4.1-4.1-7.1-4.1c-1.4,0-2.8,0-4.2,0H44.7c0,2.7,0,5.4,0,8c7.3,0,14.7,0,22,0c0.1,0,0.1,0,0.1,0c0,0,0,0,0.1,0.1
			c0,0.1,0,0.1,0,0.1c0,0,0,0,0,0.1c-7.4,12.8-14.8,25.6-22.2,38.5c0,0,0,0,0,0l0,0l0,0c0,0,0,0,0,0c0,0.1-0.1,0.1-0.1,0.1
			c-0.1,0-0.1,0-0.1-0.1c-9-15.6-18-31.1-27-46.7c-3.1,0-6.2,0-9.3,0c9.8,16.9,19.5,33.8,29.3,50.7c3.2,5.5,11.1,5.4,14.2-0.1"/>
		<polygon class="st2" points="40.5,40 25.4,14.1 24,11.7 33.3,11.7 48.6,38 49.7,40 		"/>
	</g>
</g>
<g id="Ebene_6" class="st0">
	<path class="st3" d="M35.7,65c3.1,5.5,11,5.5,14.2,0.1c9.8-16.9,19.5-33.8,29.3-50.7c-3.1,0-6.2,0-9.3,0C61,29.9,52,45.5,43,61
		c0,0.1-0.1,0.1-0.1,0.1c-0.1,0-0.1,0-0.1-0.1c0,0,0,0,0,0l0,0l0,0c0,0,0,0,0,0c-7.4-12.8-14.8-25.6-22.2-38.5c0-0.1,0-0.1,0-0.1
		c0,0,0,0,0-0.1c0-0.1,0-0.1,0.1-0.1c0,0,0,0,0.1,0c7.3,0,14.7,0,22,0l4.7-8h-4.7H24.8c-1.4,0-2.8,0-4.2,0c-3,0-5.6,1.5-7.1,4.1
		s-1.5,5.6,0,8.2C21,39.4,28.4,52.2,35.7,65c0,0.1,0.1,0.1,0.1,0.1c-0.3-0.5-0.5-0.9-0.8-1.4"/>
	<polygon class="st3" points="37.6,42.7 38.8,40.7 54.1,14.3 63.4,14.3 62,16.7 46.9,42.7 42.3,50.7 	"/>
</g>
<g id="Ebene_7" class="st0">
	<path class="st3" d="M31.5,68.2c0.3,0.5,0.6,1,0.8,1.4c0,0,0,0,0-0.1C24.4,56,16.6,42.5,8.8,28.9c-1.6-2.7-1.6-6,0-8.7
		s4.4-4.3,7.5-4.3c7.8,0,15.6,0,23.3,0c1.6,0,3.3,0,4.9,0c-1.6,2.8-3.3,5.7-4.9,8.5c-7.8,0-15.6,0-23.3,0c-0.1,0-0.1,0-0.1,0
		c0,0,0,0-0.1,0.1c0,0.1,0,0.1,0,0.1c0,0,0,0,0,0.1C24,38.2,31.8,51.8,39.6,65.3c0,0,0,0,0,0c0,0,0,0,0,0c0,0,0,0,0,0c0,0,0,0,0,0
		c0,0.1,0.1,0.1,0.1,0.1c0.1,0,0.1,0,0.1-0.1c9.5-16.5,19-33,28.6-49.5c3.3,0,6.5,0,9.8,0C68,33.8,57.6,51.7,47.3,69.6
		c-3.3,5.8-11.7,5.8-15-0.1"/>
	<polyline class="st3" points="32.6,30.5 26.6,30.5 36.1,30.5 31.3,38.7 26.6,30.5 	"/>
	<polygon class="st3" points="44,45.9 60,18.4 61.4,15.9 51.6,15.9 35.4,43.8 34.8,44.8 39.7,53.3 	"/>
</g>
<g id="Ebene_8">
	<path class="st2" d="M38.4,66c0.3,0.6,0.7,0.8,1.4,0.8c0.7,0,1-0.2,1.4-0.8c9.7-16.7,19.3-33.5,29-50.2c2.7,0,5.5,0,8.2,0
		C68,33.8,57.6,51.7,47.3,69.6c-3.3,5.8-11.6,5.8-15,0.1c0,0,0,0,0-0.1C24.4,56,16.6,42.5,8.8,28.9c-1.6-2.7-1.6-6,0-8.7
		s4.4-4.3,7.5-4.3c7.8,0,15.6,0,23.3,0c1.6,0,3.3,0,4.9,0c0.5,0,1.1,0,1.6,0s1.1,0,1.6,0c-1.4,2.4-2.7,4.7-4.1,7.1
		c-1.1,0-2.2,0-3.3,0c-8.1,0-16.1,0-24.2,0c-0.2,0-0.3,0-0.4,0.1c-0.1,0-0.2,0.1-0.4,0.1c-0.1,0.1-0.2,0.1-0.3,0.2
		c-0.1,0.1-0.2,0.2-0.3,0.4c-0.1,0.1-0.1,0.3-0.2,0.4c0,0.1-0.1,0.2-0.1,0.4c0,0.1,0,0.3,0.1,0.4c0,0.1,0.1,0.3,0.2,0.4
		C22.7,38.9,30.6,52.5,38.4,66"/>
	<polygon class="st2" points="41.5,53.3 39.8,56.1 35.7,49.1 37.4,46.2 54.9,15.9 63.1,15.9 	"/>
	<polygon class="st2" points="23.8,28.4 40.6,28.4 32.2,42.9 	"/>
</g>
</svg>
