<?xml version="1.0" encoding="utf-8"?>
<!-- Generator: Adobe Illustrator 21.1.0, SVG Export Plug-In . SVG Version: 6.00 Build 0)  -->
<svg version="1.0" xmlns="http://www.w3.org/2000/svg" xmlns:xlink="http://www.w3.org/1999/xlink" x="0px" y="0px"
	 viewBox="0 0 206 176" style="enable-background:new 0 0 206 176;" xml:space="preserve">
<style type="text/css">
	.st0{display:none;}
	.st1{display:inline;fill:#FFFFFF;}
	.st2{display:inline;fill:url(#SVGID_1_);}
	.st3{display:inline;fill:url(#SVGID_2_);}
	.st4{display:inline;fill:url(#SVGID_3_);}
	.st5{fill:#343842;}
</style>
<g id="Verlauf" class="st0">
	<polygon class="st1" points="137.9,8 160.4,8 94.9,121.4 83.7,102 	"/>
	<path class="st1" d="M91.5,146.8C69.7,109,47.9,71.1,26,33.3c-2-3.4-0.6-5.8,3.4-5.8c21.8,0,43.7,0,65.5,0c4.6,0,9.2,0,13.8,0
		c3.8-6.5,7.5-13,11.2-19.5c-8.3,0-16.7,0-25,0C73.1,8,51.2,8,29.4,8C11.4,8,0.2,27.5,9.2,43.1C31,80.9,52.8,118.7,74.7,156.5
		c9,15.6,31.5,15.6,40.5,0c28.6-49.5,57.2-99,85.7-148.5c-7.5,0-15,0-22.5,0c-26.7,46.3-53.4,92.5-80.1,138.8
		C96.3,150.2,93.5,150.2,91.5,146.8z"/>
	<polygon class="st1" points="49.7,43.1 94.9,43.1 99.7,43.1 74.7,86.4 	"/>
	<linearGradient id="SVGID_1_" gradientUnits="userSpaceOnUse" x1="132.3425" y1="67.999" x2="107.8927" y2="50.8791">
		<stop  offset="0" style="stop-color:#23959B"/>
		<stop  offset="1" style="stop-color:#279E9F"/>
	</linearGradient>
	<polygon class="st2" points="137.9,8 160.4,8 94.9,121.4 83.7,102 	"/>
	<linearGradient id="SVGID_2_" gradientUnits="userSpaceOnUse" x1="156.9371" y1="97.0263" x2="21.3721" y2="2.1026">
		<stop  offset="0" style="stop-color:#117F91"/>
		<stop  offset="1" style="stop-color:#2FD3BB"/>
	</linearGradient>
	<path class="st3" d="M91.5,146.8C69.7,109,47.9,71.1,26,33.3c-2-3.4-0.6-5.8,3.4-5.8c21.8,0,43.7,0,65.5,0c4.6,0,9.2,0,13.8,0
		c3.8-6.5,7.5-13,11.2-19.5c-8.3,0-16.7,0-25,0C73.1,8,51.2,8,29.4,8C11.4,8,0.2,27.5,9.2,43.1C31,80.9,52.8,118.7,74.7,156.5
		c9,15.6,31.5,15.6,40.5,0c28.6-49.5,57.2-99,85.7-148.5c-7.5,0-15,0-22.5,0c-26.7,46.3-53.4,92.5-80.1,138.8
		C96.3,150.2,93.5,150.2,91.5,146.8z"/>
	<linearGradient id="SVGID_3_" gradientUnits="userSpaceOnUse" x1="88.9529" y1="65.9742" x2="51.8299" y2="39.9805">
		<stop  offset="0" style="stop-color:#2AA6A4"/>
		<stop  offset="1" style="stop-color:#31BAAF"/>
	</linearGradient>
	<polygon class="st4" points="49.7,43.1 94.9,43.1 99.7,43.1 74.7,86.4 	"/>
</g>
<g id="Weiß" class="st0">
	<polygon class="st1" points="137.9,8 160.4,8 94.9,121.4 83.7,102 	"/>
	<path class="st1" d="M91.5,146.8C69.7,109,47.9,71.1,26,33.3c-2-3.4-0.6-5.8,3.4-5.8c21.8,0,43.7,0,65.5,0c4.6,0,9.2,0,13.8,0
		c3.8-6.5,7.5-13,11.2-19.5c-8.3,0-16.7,0-25,0C73.1,8,51.2,8,29.4,8C11.4,8,0.2,27.5,9.2,43.1C31,80.9,52.8,118.7,74.7,156.5
		c9,15.6,31.5,15.6,40.5,0c28.6-49.5,57.2-99,85.7-148.5c-7.5,0-15,0-22.5,0c-26.7,46.3-53.4,92.5-80.1,138.8
		C96.3,150.2,93.5,150.2,91.5,146.8z"/>
	<polygon class="st1" points="49.7,43.1 94.9,43.1 99.7,43.1 74.7,86.4 	"/>
</g>
<g id="Grau">
	<polygon class="st5" points="137.9,8 160.4,8 94.9,121.4 83.7,102 	"/>
	<path class="st5" d="M91.5,146.8C69.7,109,47.9,71.1,26,33.3c-2-3.4-0.6-5.8,3.4-5.8c21.8,0,43.7,0,65.5,0c4.6,0,9.2,0,13.8,0
		c3.8-6.5,7.5-13,11.2-19.5c-8.3,0-16.7,0-25,0C73.1,8,51.2,8,29.4,8C11.4,8,0.2,27.5,9.2,43.1C31,80.9,52.8,118.7,74.7,156.5
		c9,15.6,31.5,15.6,40.5,0c28.6-49.5,57.2-99,85.7-148.5c-7.5,0-15,0-22.5,0c-26.7,46.3-53.4,92.5-80.1,138.8
		C96.3,150.2,93.5,150.2,91.5,146.8z"/>
	<polygon class="st5" points="49.7,43.1 94.9,43.1 99.7,43.1 74.7,86.4 	"/>
</g>
</svg>
